<!DOCTYPE svg PUBLIC "-//W3C//DTD SVG 20010904//EN" "http://www.w3.org/TR/2001/REC-SVG-20010904/DTD/svg10.dtd">
<svg version="1.0" xmlns="http://www.w3.org/2000/svg" width="530px" height="730px" viewBox="0 0 5300 7300" preserveAspectRatio="xMidYMid meet">
<g id="layer101" fill="#010101" stroke="none">
 <path d="M835 7168 c-102 -37 -148 -126 -170 -327 l-7 -65 -95 -95 c-104 -105 -120 -129 -130 -196 -16 -120 77 -207 252 -235 58 -9 88 -8 173 6 133 21 81 40 727 -258 77 -36 157 -71 178 -77 20 -7 37 -17 37 -22 0 -12 -10 -17 -550 -234 -581 -233 -542 -221 -649 -205 -174 26 -326 0 -405 -69 -26 -23 -54 -82 -62 -129 -9 -58 20 -111 125 -230 l88 -100 12 -78 c23 -138 56 -227 101 -267 50 -46 105 -62 163 -46 111 29 196 104 262 231 77 148 78 149 237 216 287 122 1488 592 1512 592 20 0 947 -350 1327 -501 180 -72 345 -144 367 -160 28 -21 52 -53 82 -112 54 -106 100 -161 173 -208 56 -36 65 -39 134 -39 45 0 85 6 102 14 66 34 117 150 128 286 l6 78 83 85 c98 102 134 165 134 237 0 88 -44 141 -147 180 -79 29 -164 35 -311 21 l-127 -13 -160 65 c-158 64 -928 358 -974 372 -19 6 -21 9 -10 20 15 14 687 296 811 340 63 22 86 26 135 21 178 -19 252 -18 321 3 125 38 178 137 140 265 -9 30 -39 68 -114 146 l-102 105 -12 104 c-20 180 -63 252 -165 281 -36 10 -52 9 -101 -5 -48 -14 -69 -28 -124 -83 -36 -37 -95 -114 -131 -172 l-66 -104 -184 -77 c-101 -42 -328 -136 -504 -209 -176 -73 -416 -173 -534 -222 -204 -84 -216 -88 -250 -77 -92 30 -494 195 -656 269 -99 45 -282 134 -408 197 -248 125 -245 123 -313 252 -42 79 -135 176 -203 211 -50 25 -108 32 -146 18z"/>
 <path d="M2435 5164 c-178 -27 -361 -98 -500 -194 -119 -83 -257 -241 -299 -342 -22 -53 -45 -211 -56 -378 -19 -292 -86 -703 -125 -766 -8 -11 -36 -35 -62 -52 -89 -57 -157 -164 -193 -306 -15 -58 -21 -129 -26 -284 l-7 -206 -54 -85 c-119 -189 -217 -428 -264 -642 -30 -136 -33 -433 -6 -572 119 -603 613 -997 1387 -1106 258 -37 664 -34 885 4 764 135 1230 530 1362 1156 24 117 24 370 -1 499 -40 204 -123 402 -241 575 l-69 100 -1 250 c-1 289 -11 360 -62 465 -54 110 -103 155 -250 224 -1 1 -11 46 -22 101 -31 154 -58 358 -81 610 -22 237 -39 346 -66 412 -61 145 -279 343 -478 432 -235 106 -517 144 -771 105z"/>
 </g>
<g id="layer102" fill="#ffffff" stroke="none">
 <path d="M4374 7074 c-51 -17 -129 -100 -190 -204 -83 -140 -78 -136 -374 -259 -1177 -487 -1077 -443 -1049 -454 13 -4 110 -40 214 -79 105 -39 213 -80 240 -90 28 -11 61 -22 75 -25 17 -3 109 31 280 103 140 58 356 149 479 200 123 52 245 97 272 100 34 5 77 0 144 -16 85 -20 102 -21 157 -10 88 17 106 26 128 62 22 37 26 78 9 111 -6 12 -56 67 -110 122 -109 111 -109 109 -125 285 -12 134 -61 185 -150 154z"/>
 <path d="M820 7052 c-36 -37 -49 -81 -63 -220 l-11 -114 -85 -71 c-103 -88 -141 -137 -141 -184 0 -89 180 -158 312 -119 31 9 86 16 123 16 66 0 75 -3 404 -156 466 -217 430 -202 1488 -600 639 -240 1049 -397 1265 -483 287 -115 306 -128 374 -264 53 -104 101 -160 166 -193 65 -33 99 -31 137 7 39 39 61 110 68 227 l6 93 79 71 c178 161 185 256 21 304 -43 12 -77 15 -142 10 -47 -4 -125 -9 -172 -12 l-87 -6 -178 72 c-216 87 -269 107 -1214 462 -1082 406 -1216 461 -1608 657 -378 189 -382 192 -451 329 -28 56 -56 94 -97 131 -88 81 -144 93 -194 43z"/>
 <path d="M1370 5613 c-305 -124 -585 -235 -623 -246 -62 -20 -71 -20 -125 -7 -33 9 -104 15 -167 15 -98 0 -115 -3 -155 -25 -52 -29 -86 -85 -76 -126 4 -13 53 -73 110 -132 l103 -107 8 -79 c10 -110 41 -215 73 -248 37 -40 93 -38 155 3 67 44 100 86 151 191 26 55 60 108 83 130 49 48 141 86 1358 560 55 22 126 49 158 61 31 11 57 24 57 29 0 4 -15 11 -32 17 -18 5 -140 50 -271 100 -131 50 -241 91 -245 90 -4 0 -257 -102 -562 -226z"/>
 <path d="M2424 5085 c-289 -53 -534 -201 -669 -405 -69 -104 -74 -133 -105 -535 -14 -174 -44 -388 -74 -522 -13 -57 -20 -103 -17 -103 12 0 110 60 118 72 14 23 73 210 103 328 29 116 80 375 80 411 0 48 145 162 277 219 430 182 1004 107 1264 -167 44 -46 47 -52 59 -138 16 -113 57 -283 108 -445 22 -69 45 -147 52 -173 8 -28 22 -54 34 -62 27 -18 103 -45 109 -39 2 3 -2 30 -9 62 -24 100 -63 391 -79 592 -27 345 -38 395 -108 493 -50 70 -160 177 -232 227 -123 85 -304 155 -474 184 -113 19 -334 20 -437 1z"/>
 <path d="M2573 4602 l-53 -3 0 -120 0 -120 58 3 57 3 3 114 c1 63 -1 117 -5 120 -4 3 -32 5 -60 3z"/>
 <path d="M2684 4601 c-2 -2 -4 -58 -4 -123 l0 -118 65 0 66 0 -3 118 -3 117 -58 5 c-32 3 -60 3 -63 1z"/>
 <path d="M2392 4580 c-18 -4 -35 -10 -38 -13 -3 -2 -2 -57 2 -121 6 -100 9 -116 23 -112 9 3 33 8 54 12 l37 6 0 119 c0 133 3 128 -78 109z"/>
 <path d="M2850 4472 c0 -133 -5 -123 73 -137 l37 -6 0 120 c0 132 5 123 -72 137 l-38 6 0 -120z"/>
 <path d="M2245 4542 l-50 -17 -3 -117 c-1 -65 1 -118 6 -118 5 0 32 7 60 15 l52 16 0 119 c0 66 -3 120 -7 120 -5 -1 -30 -9 -58 -18z"/>
 <path d="M3006 4528 c-3 -17 -6 -70 -6 -119 l0 -88 63 -19 62 -18 8 110 c4 60 4 113 0 117 -5 3 -33 16 -64 27 l-57 21 -6 -31z"/>
 <path d="M2083 4474 l-43 -25 0 -110 c0 -60 1 -109 3 -109 1 0 25 9 52 19 l50 19 1 116 c1 79 -2 116 -10 116 -6 0 -30 -12 -53 -26z"/>
 <path d="M3180 4377 l0 -115 47 -16 c26 -9 50 -16 55 -16 4 0 8 44 8 98 0 107 6 95 -77 145 l-33 19 0 -115z"/>
 <path d="M1948 4380 c-27 -22 -39 -42 -43 -68 -42 -247 -86 -443 -129 -572 -14 -41 -24 -75 -22 -77 3 -4 51 53 111 131 19 26 42 64 50 84 9 21 28 44 45 54 l30 17 0 231 c0 126 -1 230 -3 230 -1 0 -19 -14 -39 -30z"/>
 <path d="M3330 4171 l0 -209 31 -26 c17 -14 34 -26 38 -26 4 0 19 -26 33 -58 23 -53 127 -206 135 -198 2 2 -14 55 -35 117 -48 140 -98 335 -116 458 -11 77 -18 97 -42 122 -15 16 -31 29 -36 29 -4 0 -8 -94 -8 -209z"/>
 <path d="M2543 4313 c-22 -4 -23 -8 -23 -129 l0 -124 60 0 60 0 0 130 0 130 -37 -1 c-21 -1 -48 -4 -60 -6z"/>
 <path d="M2680 4191 l0 -131 59 0 60 0 3 121 c2 67 1 122 -2 124 -3 2 -31 6 -62 10 l-58 7 0 -131z"/>
 <path d="M2388 4293 l-28 -4 0 -122 0 -122 55 3 55 4 0 124 0 124 -27 -1 c-16 -1 -40 -4 -55 -6z"/>
 <path d="M2850 4182 c0 -133 -1 -132 71 -132 l39 0 0 114 c0 63 -3 117 -7 119 -5 3 -29 8 -55 12 l-48 7 0 -120z"/>
 <path d="M2237 4253 l-48 -14 3 -107 3 -107 25 2 c14 2 40 5 58 8 l32 6 0 114 c0 127 4 122 -73 98z"/>
 <path d="M3000 4155 c0 -105 2 -115 19 -115 10 0 39 -3 65 -6 l46 -7 0 105 0 105 -60 16 c-33 10 -62 17 -65 17 -3 0 -5 -52 -5 -115z"/>
 <path d="M2088 4199 l-47 -21 -3 -99 c-2 -54 -1 -99 1 -99 2 0 28 8 58 17 l53 17 0 103 c0 57 -3 103 -7 103 -5 -1 -29 -10 -55 -21z"/>
 <path d="M3175 4123 c-4 -52 -3 -98 1 -102 10 -9 85 -31 103 -31 8 0 11 27 9 92 l-3 92 -51 22 -52 23 -7 -96z"/>
 <path d="M2490 4010 c-215 -13 -431 -56 -466 -93 -6 -7 -16 -32 -23 -57 -43 -150 -220 -330 -417 -420 -151 -70 -157 -74 -196 -112 -138 -137 -179 -474 -107 -868 17 -92 23 -164 23 -270 l1 -145 -42 -116 c-79 -222 -85 -294 -31 -447 25 -72 19 -95 -26 -100 -23 -3 -29 3 -46 41 -66 150 -65 290 5 490 66 187 71 216 56 344 -15 145 -33 243 -42 243 -14 0 -117 -193 -158 -295 -87 -218 -121 -387 -121 -600 0 -275 56 -470 197 -683 117 -177 291 -322 518 -433 200 -97 388 -150 675 -191 128 -18 604 -18 725 1 462 69 791 212 1034 451 240 237 371 549 371 884 0 200 -48 410 -135 591 -56 117 -132 235 -139 215 -9 -29 -28 -225 -27 -290 0 -42 11 -101 30 -165 45 -154 61 -218 71 -301 18 -138 -25 -299 -79 -299 -39 0 -47 26 -28 89 39 121 29 227 -39 451 -50 165 -53 237 -19 495 35 267 45 589 21 700 -29 137 -95 237 -188 286 -15 8 -70 23 -121 33 -155 31 -246 92 -331 220 -53 80 -106 193 -106 227 0 84 -430 148 -840 124z m453 -348 c50 -55 60 -155 32 -318 -33 -185 -90 -297 -199 -385 -34 -27 -64 -49 -68 -49 -5 0 -8 142 -8 316 l0 316 34 47 c82 111 151 135 209 73z m-439 7 c15 -12 45 -45 67 -75 l39 -53 0 -316 c0 -173 -4 -315 -8 -315 -4 0 -35 21 -67 48 -110 88 -169 204 -200 395 -27 166 -17 257 35 309 36 35 94 38 134 7z m-481 -634 c88 -23 136 -52 207 -124 45 -46 78 -92 109 -153 40 -79 44 -94 49 -180 7 -140 -10 -190 -96 -278 -92 -93 -130 -104 -331 -97 -157 5 -226 19 -326 66 -121 57 -152 120 -142 290 10 159 59 299 131 373 96 99 256 140 399 103z m1573 -39 c72 -33 142 -100 178 -172 58 -115 88 -353 57 -447 -39 -117 -284 -206 -536 -194 -127 6 -185 29 -253 101 -81 85 -96 124 -96 241 -1 117 15 172 76 267 71 112 152 182 251 219 82 30 241 23 323 -15z"/>
 </g>

</svg>